<svg xmlns="http://www.w3.org/2000/svg" style="display:none">
  <defs>
    <symbol id="icon-fame" viewBox="0 0 32 32">
      <path d="M16 2l3.5 7.5L28 11l-6 5.5L23.5 25 16 21l-7.5 4L10 16.5 4 11l8.5-1.5z" fill="currentColor" stroke="currentColor" stroke-width="0.5"/>
      <circle cx="16" cy="14" r="4" fill="none" stroke="currentColor" stroke-width="1.5" opacity="0.4"/>
    </symbol>
    <symbol id="icon-coin" viewBox="0 0 32 32">
      <circle cx="16" cy="16" r="13" fill="currentColor" opacity="0.2" stroke="currentColor" stroke-width="1.5"/>
      <circle cx="16" cy="16" r="10" fill="none" stroke="currentColor" stroke-width="1"/>
      <text x="16" y="20" text-anchor="middle" font-size="12" font-weight="bold" fill="currentColor" font-family="Cinzel">C</text>
    </symbol>
    <symbol id="icon-shard" viewBox="0 0 32 32">
      <polygon points="16,2 24,12 20,30 12,30 8,12" fill="currentColor" opacity="0.3" stroke="currentColor" stroke-width="1.2"/>
      <line x1="16" y1="2" x2="16" y2="30" stroke="currentColor" stroke-width="0.8" opacity="0.5"/>
      <line x1="8" y1="12" x2="24" y2="12" stroke="currentColor" stroke-width="0.8" opacity="0.5"/>
    </symbol>
    <symbol id="icon-trick" viewBox="0 0 32 32">
      <rect x="8" y="4" width="16" height="24" rx="2" fill="currentColor" opacity="0.15" stroke="currentColor" stroke-width="1.2"/>
      <ellipse cx="8" cy="6" rx="2" ry="3" fill="none" stroke="currentColor" stroke-width="1"/>
      <ellipse cx="24" cy="26" rx="2" ry="3" fill="none" stroke="currentColor" stroke-width="1"/>
      <line x1="12" y1="10" x2="22" y2="10" stroke="currentColor" stroke-width="1" opacity="0.5"/>
      <line x1="12" y1="14" x2="20" y2="14" stroke="currentColor" stroke-width="1" opacity="0.5"/>
      <line x1="12" y1="18" x2="18" y2="18" stroke="currentColor" stroke-width="1" opacity="0.5"/>
    </symbol>
    <symbol id="icon-component" viewBox="0 0 32 32">
      <path d="M14 4h4v3l2.5 1 2-2.5 2.8 2.8-2.5 2 1 2.5h3v4h-3l-1 2.5 2.5 2-2.8 2.8-2-2.5-2.5 1v3h-4v-3l-2.5-1-2 2.5-2.8-2.8 2.5-2-1-2.5H4v-4h3l1-2.5-2.5-2 2.8-2.8 2 2.5 2.5-1V4z" fill="currentColor" opacity="0.2" stroke="currentColor" stroke-width="1"/>
      <circle cx="16" cy="16" r="4" fill="none" stroke="currentColor" stroke-width="1.5"/>
    </symbol>
    <symbol id="icon-theater" viewBox="0 0 32 32">
      <path d="M4 28V12l12-8 12 8v16" fill="currentColor" opacity="0.15" stroke="currentColor" stroke-width="1.2"/>
      <rect x="12" y="18" width="8" height="10" fill="none" stroke="currentColor" stroke-width="1"/>
      <circle cx="16" cy="10" r="3" fill="none" stroke="currentColor" stroke-width="1"/>
      <line x1="4" y1="12" x2="28" y2="12" stroke="currentColor" stroke-width="1"/>
    </symbol>
    <symbol id="icon-market" viewBox="0 0 32 32">
      <path d="M2 14h28l-3-8H5z" fill="currentColor" opacity="0.2" stroke="currentColor" stroke-width="1"/>
      <rect x="6" y="14" width="20" height="14" fill="currentColor" opacity="0.1" stroke="currentColor" stroke-width="1"/>
      <line x1="12" y1="14" x2="12" y2="28" stroke="currentColor" stroke-width="0.8" opacity="0.4"/>
      <line x1="20" y1="14" x2="20" y2="28" stroke="currentColor" stroke-width="0.8" opacity="0.4"/>
    </symbol>
    <symbol id="icon-darkAlley" viewBox="0 0 32 32">
      <circle cx="16" cy="12" r="8" fill="currentColor" opacity="0.15" stroke="currentColor" stroke-width="1"/>
      <path d="M16 4c-1 2-4 5-4 8 0 2.2 1.8 4 4 4s4-1.8 4-4c0-3-3-6-4-8z" fill="currentColor" opacity="0.4"/>
      <rect x="14" y="22" width="4" height="8" rx="1" fill="currentColor" opacity="0.3" stroke="currentColor" stroke-width="0.8"/>
    </symbol>
    <symbol id="icon-workshop" viewBox="0 0 32 32">
      <path d="M8 28l8-16 8 16z" fill="currentColor" opacity="0.15" stroke="currentColor" stroke-width="1"/>
      <rect x="14" y="4" width="4" height="14" rx="1" fill="currentColor" opacity="0.3" stroke="currentColor" stroke-width="1"/>
      <rect x="6" y="24" width="20" height="4" rx="1" fill="currentColor" opacity="0.2" stroke="currentColor" stroke-width="1"/>
    </symbol>
    <symbol id="icon-downtown" viewBox="0 0 32 32">
      <rect x="4" y="12" width="10" height="16" fill="currentColor" opacity="0.15" stroke="currentColor" stroke-width="1"/>
      <rect x="18" y="8" width="10" height="20" fill="currentColor" opacity="0.15" stroke="currentColor" stroke-width="1"/>
      <rect x="11" y="16" width="10" height="12" fill="currentColor" opacity="0.2" stroke="currentColor" stroke-width="1"/>
      <path d="M14 12l5-6 5 6" fill="none" stroke="currentColor" stroke-width="1"/>
    </symbol>
    <symbol id="icon-magician" viewBox="0 0 32 32">
      <ellipse cx="16" cy="22" rx="6" ry="3" fill="currentColor" opacity="0.2" stroke="currentColor" stroke-width="1"/>
      <rect x="10" y="10" width="12" height="12" rx="1" fill="currentColor" opacity="0.15" stroke="currentColor" stroke-width="1"/>
      <path d="M8 22h16" stroke="currentColor" stroke-width="1.5"/>
      <rect x="9" y="8" width="14" height="3" rx="1" fill="currentColor" opacity="0.3" stroke="currentColor" stroke-width="0.8"/>
    </symbol>
    <symbol id="icon-apprentice" viewBox="0 0 32 32">
      <rect x="6" y="6" width="20" height="22" rx="2" fill="currentColor" opacity="0.15" stroke="currentColor" stroke-width="1.2"/>
      <line x1="10" y1="12" x2="22" y2="12" stroke="currentColor" stroke-width="0.8"/>
      <line x1="10" y1="16" x2="22" y2="16" stroke="currentColor" stroke-width="0.8"/>
      <line x1="10" y1="20" x2="18" y2="20" stroke="currentColor" stroke-width="0.8"/>
      <path d="M6 6l10-3 10 3" fill="none" stroke="currentColor" stroke-width="1"/>
    </symbol>
    <symbol id="icon-engineer" viewBox="0 0 32 32">
      <path d="M10 6l-4 10h4v12h4V16h-2L16 6z" fill="currentColor" opacity="0.25" stroke="currentColor" stroke-width="1"/>
      <circle cx="22" cy="12" r="6" fill="none" stroke="currentColor" stroke-width="1.2"/>
      <circle cx="22" cy="12" r="2" fill="currentColor" opacity="0.4"/>
      <line x1="22" y1="6" x2="22" y2="8" stroke="currentColor" stroke-width="1"/>
      <line x1="22" y1="16" x2="22" y2="18" stroke="currentColor" stroke-width="1"/>
      <line x1="16" y1="12" x2="18" y2="12" stroke="currentColor" stroke-width="1"/>
      <line x1="26" y1="12" x2="28" y2="12" stroke="currentColor" stroke-width="1"/>
    </symbol>
    <symbol id="icon-manager" viewBox="0 0 32 32">
      <rect x="5" y="10" width="22" height="16" rx="2" fill="currentColor" opacity="0.15" stroke="currentColor" stroke-width="1.2"/>
      <path d="M10 10V8a6 6 0 0112 0v2" fill="none" stroke="currentColor" stroke-width="1.2"/>
      <circle cx="16" cy="18" r="3" fill="currentColor" opacity="0.3" stroke="currentColor" stroke-width="0.8"/>
      <line x1="16" y1="21" x2="16" y2="24" stroke="currentColor" stroke-width="1"/>
    </symbol>
    <symbol id="icon-assistant" viewBox="0 0 32 32">
      <circle cx="12" cy="10" r="4" fill="currentColor" opacity="0.2" stroke="currentColor" stroke-width="1"/>
      <circle cx="22" cy="10" r="4" fill="currentColor" opacity="0.2" stroke="currentColor" stroke-width="1"/>
      <path d="M8 28c0-6 3-10 8-10s8 4 8 10" fill="currentColor" opacity="0.15" stroke="currentColor" stroke-width="1"/>
      <path d="M14 14l4 0" stroke="currentColor" stroke-width="2" opacity="0.5"/>
    </symbol>
    <symbol id="icon-gear-large" viewBox="0 0 100 100">
      <path d="M43 4h14v8l6 2.5 5.5-5.5 10 10-5.5 5.5 2.5 6h8v14h-8l-2.5 6 5.5 5.5-10 10-5.5-5.5-6 2.5v8H43v-8l-6-2.5-5.5 5.5-10-10 5.5-5.5-2.5-6H16V40h8l2.5-6-5.5-5.5 10-10 5.5 5.5 6-2.5V4z" fill="none" stroke="currentColor" stroke-width="2" opacity="0.15"/>
      <circle cx="50" cy="50" r="18" fill="none" stroke="currentColor" stroke-width="2" opacity="0.1"/>
      <circle cx="50" cy="50" r="8" fill="none" stroke="currentColor" stroke-width="1.5" opacity="0.1"/>
    </symbol>
    <symbol id="icon-close" viewBox="0 0 24 24">
      <circle cx="12" cy="12" r="10" fill="none" stroke="currentColor" stroke-width="1.5" opacity="0.3"/>
      <line x1="8" y1="8" x2="16" y2="16" stroke="currentColor" stroke-width="2"/>
      <line x1="16" y1="8" x2="8" y2="16" stroke="currentColor" stroke-width="2"/>
    </symbol>
    <symbol id="icon-rules" viewBox="0 0 24 24">
      <rect x="4" y="2" width="16" height="20" rx="2" fill="currentColor" opacity="0.15" stroke="currentColor" stroke-width="1.2"/>
      <line x1="8" y1="6" x2="16" y2="6" stroke="currentColor" stroke-width="0.8"/>
      <line x1="8" y1="9" x2="16" y2="9" stroke="currentColor" stroke-width="0.8"/>
      <line x1="8" y1="12" x2="14" y2="12" stroke="currentColor" stroke-width="0.8"/>
      <path d="M4 18h16" stroke="currentColor" stroke-width="1"/>
    </symbol>
    <symbol id="icon-arrow-right" viewBox="0 0 24 24">
      <path d="M8 4l8 8-8 8" fill="none" stroke="currentColor" stroke-width="2.5" stroke-linecap="round" stroke-linejoin="round"/>
    </symbol>
    <symbol id="icon-play" viewBox="0 0 32 32">
      <polygon points="8,4 28,16 8,28" fill="currentColor" opacity="0.3" stroke="currentColor" stroke-width="1.5"/>
    </symbol>
    <symbol id="icon-steam" viewBox="0 0 32 32">
      <path d="M8 28c0-4 4-6 4-10s-2-6 2-8c4 2 2 4 2 8s4 6 4 10" fill="none" stroke="currentColor" stroke-width="1.5" opacity="0.3"/>
      <path d="M16 28c0-4 4-6 4-10s-2-6 2-8c4 2 2 4 2 8s4 6 4 10" fill="none" stroke="currentColor" stroke-width="1.5" opacity="0.2"/>
    </symbol>
    <symbol id="icon-crown" viewBox="0 0 32 32">
      <path d="M4 24l4-12 4 6 4-10 4 10 4-6 4 12z" fill="currentColor" opacity="0.3" stroke="currentColor" stroke-width="1.2"/>
      <rect x="4" y="24" width="24" height="4" rx="1" fill="currentColor" opacity="0.2" stroke="currentColor" stroke-width="1"/>
    </symbol>
    <symbol id="icon-dice" viewBox="0 0 32 32">
      <rect x="4" y="4" width="24" height="24" rx="4" fill="currentColor" opacity="0.15" stroke="currentColor" stroke-width="1.2"/>
      <circle cx="10" cy="10" r="2" fill="currentColor" opacity="0.5"/>
      <circle cx="22" cy="10" r="2" fill="currentColor" opacity="0.5"/>
      <circle cx="16" cy="16" r="2" fill="currentColor" opacity="0.5"/>
      <circle cx="10" cy="22" r="2" fill="currentColor" opacity="0.5"/>
      <circle cx="22" cy="22" r="2" fill="currentColor" opacity="0.5"/>
    </symbol>
    <symbol id="icon-ap" viewBox="0 0 24 24">
      <polygon points="14,2 6,14 12,14 10,22 18,10 12,10" fill="currentColor" opacity="0.3" stroke="currentColor" stroke-width="1"/>
    </symbol>
  </defs>
</svg>
